<mxfile host="65bd71144e">
    <diagram id="64kscj9l8phwVJwk-eQl" name="Page-1">
        <mxGraphModel dx="736" dy="556" grid="1" gridSize="10" guides="1" tooltips="1" connect="1" arrows="1" fold="1" page="1" pageScale="1" pageWidth="850" pageHeight="1100" math="0" shadow="0">
            <root>
                <mxCell id="0"/>
                <mxCell id="1" parent="0"/>
                <mxCell id="2" value="Superclass&lt;br&gt;Car&lt;br&gt;&lt;br&gt;Position&lt;br&gt;Index&lt;br&gt;&lt;br&gt;updatePos()" style="whiteSpace=wrap;html=1;" vertex="1" parent="1">
                    <mxGeometry x="305" y="100" width="135" height="110" as="geometry"/>
                </mxCell>
                <mxCell id="3" value="Subclass&lt;br&gt;Player&lt;br&gt;&lt;br&gt;Position&lt;br&gt;Index&lt;br&gt;&lt;br&gt;move()" style="whiteSpace=wrap;html=1;" vertex="1" parent="1">
                    <mxGeometry x="440" y="240" width="135" height="120" as="geometry"/>
                </mxCell>
                <mxCell id="4" value="Subclass&lt;br&gt;AI Player&lt;br&gt;&lt;br&gt;Position&lt;br&gt;Index&lt;br&gt;&lt;br&gt;randomMove()" style="whiteSpace=wrap;html=1;" vertex="1" parent="1">
                    <mxGeometry x="150" y="240" width="135" height="120" as="geometry"/>
                </mxCell>
                <mxCell id="5" value="" style="edgeStyle=none;orthogonalLoop=1;jettySize=auto;html=1;exitX=1;exitY=1;exitDx=0;exitDy=0;entryX=0.141;entryY=0.004;entryDx=0;entryDy=0;entryPerimeter=0;" edge="1" parent="1" source="2" target="3">
                    <mxGeometry width="80" relative="1" as="geometry">
                        <mxPoint x="380" y="220" as="sourcePoint"/>
                        <mxPoint x="460" y="230" as="targetPoint"/>
                        <Array as="points"/>
                    </mxGeometry>
                </mxCell>
                <mxCell id="6" value="" style="edgeStyle=none;orthogonalLoop=1;jettySize=auto;html=1;exitX=0;exitY=1;exitDx=0;exitDy=0;entryX=0.911;entryY=0.013;entryDx=0;entryDy=0;entryPerimeter=0;" edge="1" parent="1" source="2" target="4">
                    <mxGeometry width="80" relative="1" as="geometry">
                        <mxPoint x="450" y="220" as="sourcePoint"/>
                        <mxPoint x="470" y="240" as="targetPoint"/>
                        <Array as="points"/>
                    </mxGeometry>
                </mxCell>
            </root>
        </mxGraphModel>
    </diagram>
</mxfile>